<?xml version="1.0" encoding="utf-8"?>
<!-- Generator: Adobe Illustrator 19.1.1, SVG Export Plug-In . SVG Version: 6.00 Build 0)  -->
<svg version="1.1"  xmlns="http://www.w3.org/2000/svg" xmlns:xlink="http://www.w3.org/1999/xlink" x="0px" y="0px"
	 viewBox="0 0 48 48" enable-background="new 0 0 48 48" xml:space="preserve">
<g  transform="translate(-277.14275,-3.3922404)">
	<path  fill="#FF3D00" d="M301.1,8.4l-3.5,3.3c1.2,1.8,1.7,3.8,1.7,4.9c-1.1-1.9-2-2.4-3.2-3.1l-3,3c3.1,1.1,6,4.2,6,8
		c0,1.8-1.1,6.2-5.4,6l0,0c-3.2-0.4-6.2-4.1-6.5-8.2c-0.3-4.1,1.1-7.5,4-10.8l0,0c-5.2,3.1-8.5,8.1-8.9,14.5c0,0.2,0,0.3,0,0.5
		c0,0,0,0,0,0c0,0.2,0,0.3,0,0.5c0,0.2,0,0.3,0,0.5c0,10.5,8.5,19,19,19s19-8.5,19-19c0-0.5,0-1-0.1-1.5c-0.5-6.4-3.7-11.4-8.9-14.5
		h0c2.8,3.3,4.2,6.8,4,10.8c-0.3,4.1-3.3,7.8-6.5,8.2l0,0c-4.4,0.2-5.4-4.2-5.4-6c0-3.8,2.9-6.9,6-8l-3-3c-1.1,0.8-2.1,1.3-3.2,3.1
		c0-1.1,0.5-3.1,1.7-4.9L301.1,8.4z"/>
</g>
</svg>
