<?xml version="1.0" standalone="no"?>
<!DOCTYPE svg PUBLIC "-//W3C//DTD SVG 20010904//EN"
 "http://www.w3.org/TR/2001/REC-SVG-20010904/DTD/svg10.dtd">
<svg version="1.0" xmlns="http://www.w3.org/2000/svg"
 width="142.000000pt" height="74.000000pt" viewBox="0 0 142.000000 74.000000"
 preserveAspectRatio="xMidYMid meet">
<metadata>
Created by potrace 1.15, written by Peter Selinger 2001-2017
</metadata>
<g transform="translate(0.000000,74.000000) scale(0.100000,-0.100000)"
fill="#000000" stroke="none">
<path d="M418 577 l-87 -152 74 -3 75 -3 0 -49 0 -49 -74 -3 -74 -3 87 -150
87 -150 206 -3 206 -2 86 150 c47 82 86 152 86 155 0 3 -31 5 -70 5 l-70 0 0
50 0 50 70 0 c39 0 70 3 70 8 0 4 -38 72 -84 152 l-84 145 -208 2 -209 3 -87
-153z"/>
<path d="M131 135 l126 -125 81 0 c45 0 82 3 82 6 0 3 -32 59 -70 125 l-71
119 -137 0 -137 0 126 -125z"/>
<path d="M1073 137 l-73 -122 82 -3 82 -3 125 126 126 125 -135 0 -135 0 -72
-123z"/>
</g>
</svg>
