<?xml version="1.0" standalone="no"?>
<!DOCTYPE svg PUBLIC "-//W3C//DTD SVG 20010904//EN"
 "http://www.w3.org/TR/2001/REC-SVG-20010904/DTD/svg10.dtd">
<svg version="1.0" xmlns="http://www.w3.org/2000/svg"
 width="174.000000pt" height="63.000000pt" viewBox="0 0 174.000000 63.000000"
 preserveAspectRatio="xMidYMid meet">
<metadata>
Created by potrace 1.15, written by Peter Selinger 2001-2017
</metadata>
<g transform="translate(0.000000,63.000000) scale(0.100000,-0.100000)"
fill="#000000" stroke="none">
<path d="M667 313 l-196 -298 391 -3 c215 -1 393 0 395 2 5 4 -383 596 -390
596 -3 0 -93 -134 -200 -297z"/>
<path d="M155 350 l150 -150 80 0 80 0 80 121 c44 67 88 134 98 150 l19 29
-328 0 -329 0 150 -150z"/>
<path d="M1170 350 l100 -150 83 0 82 0 150 150 150 150 -333 0 -332 0 100
-150z"/>
</g>
</svg>
