<?xml version="1.0" standalone="no"?>
<!DOCTYPE svg PUBLIC "-//W3C//DTD SVG 20010904//EN"
 "http://www.w3.org/TR/2001/REC-SVG-20010904/DTD/svg10.dtd">
<svg version="1.0" xmlns="http://www.w3.org/2000/svg"
 width="132.000000pt" height="133.000000pt" viewBox="0 0 132.000000 133.000000"
 preserveAspectRatio="xMidYMid meet">

<g transform="translate(0.000000,133.000000) scale(0.100000,-0.100000)"
fill="#000000" stroke="none">
<path d="M510 1275 c-207 -51 -375 -203 -448 -407 -35 -98 -42 -248 -17 -351
87 -360 462 -569 811 -452 411 138 563 634 300 982 -83 109 -209 191 -351 228
-72 18 -219 18 -295 0z m268 -41 c219 -45 405 -229 452 -445 19 -85 8 -249
-20 -324 -74 -194 -230 -331 -428 -376 -69 -15 -202 -12 -274 6 -188 49 -354
210 -414 402 -8 26 -17 84 -20 128 -21 283 179 549 458 610 85 18 154 18 246
-1z"/>
<path d="M211 971 c-41 -41 -19 -83 55 -106 27 -8 54 -15 60 -15 11 0 37 97
29 110 -2 4 -22 10 -42 14 -21 3 -48 9 -60 12 -14 4 -28 -1 -42 -15z m105 -18
c-7 -7 -76 8 -76 17 0 4 18 3 40 -2 23 -6 39 -13 36 -15z m-8 -28 c12 -11 -8
-16 -42 -10 -48 9 -48 29 0 22 20 -3 39 -9 42 -12z m-10 -40 c12 -12 -5 -12
-43 1 l-40 14 39 -5 c21 -2 41 -7 44 -10z"/>
<path d="M377 943 c-2 -5 -7 -21 -11 -38 -4 -16 -9 -37 -12 -46 -3 -11 7 -19
38 -28 24 -7 49 -18 55 -23 14 -11 15 -9 32 57 16 59 15 62 -33 74 -53 13 -63
14 -69 4z"/>
<path d="M516 934 c-11 -28 -7 -32 45 -44 39 -10 53 -10 59 -1 10 16 100 -6
100 -25 0 -14 1 -14 215 -68 101 -25 143 -32 152 -24 14 11 18 37 6 39 -5 1
-21 3 -36 5 -16 1 -138 32 -273 68 -134 37 -248 66 -253 66 -5 0 -12 -7 -15
-16z"/>
<path d="M497 863 c-3 -16 -5 -29 -4 -30 10 -10 533 -133 547 -128 18 6 35 33
26 42 -3 3 -82 24 -177 48 -121 31 -177 41 -186 34 -8 -7 -18 -7 -30 0 -16 9
-16 10 5 11 12 0 22 6 22 14 0 17 -58 32 -72 18 -6 -6 -27 -5 -61 4 -67 18
-64 18 -70 -13z"/>
<path d="M480 794 c0 -7 7 -17 15 -21 14 -8 13 -16 -4 -68 -11 -33 -19 -60
-18 -60 1 -1 43 -20 92 -43 50 -23 122 -50 160 -61 122 -33 128 -36 121 -75
-5 -24 -2 -35 7 -39 20 -8 41 -95 27 -112 -8 -9 -6 -17 5 -29 12 -12 36 -16
96 -16 43 0 79 3 79 8 0 4 -20 71 -45 150 -24 79 -41 150 -38 158 6 16 47 29
63 19 6 -3 24 -4 40 0 25 6 30 13 41 60 17 78 -5 117 -33 58 -25 -52 -50 -55
-178 -23 -143 37 -146 37 -153 1 -4 -17 -14 -30 -26 -34 -36 -9 -23 -23 31
-36 59 -13 78 -26 78 -51 0 -36 -26 -45 -88 -29 l-57 15 1 43 c1 32 7 48 27
67 39 36 35 61 -10 73 -194 51 -233 58 -233 45z"/>
<path d="M473 604 c-4 -11 1 -22 13 -31 17 -12 20 -11 28 7 7 16 6 24 -5 31
-20 13 -29 11 -36 -7z"/>
<path d="M790 592 c0 -10 -5 -23 -12 -30 -7 -7 -8 -12 -2 -12 16 0 34 22 34
42 0 10 -4 18 -10 18 -5 0 -10 -8 -10 -18z"/>
<path d="M540 567 c0 -22 16 -37 41 -37 5 0 9 11 9 25 0 14 -4 25 -9 25 -5 0
-16 3 -25 6 -12 5 -16 0 -16 -19z"/>
<path d="M460 558 c1 -7 38 -30 83 -51 83 -38 107 -44 107 -28 0 5 -6 12 -12
14 -8 3 -6 6 5 6 23 1 22 38 -2 51 -16 8 -21 6 -26 -10 -3 -11 -3 -24 0 -30 8
-12 -25 0 -94 35 -58 29 -61 29 -61 13z"/>
</g>
</svg>
