<?xml version="1.0" standalone="no"?>
<!DOCTYPE svg PUBLIC "-//W3C//DTD SVG 20010904//EN"
 "http://www.w3.org/TR/2001/REC-SVG-20010904/DTD/svg10.dtd">
<svg version="1.0" xmlns="http://www.w3.org/2000/svg"
 width="126.000000pt" height="126.000000pt" viewBox="0 0 126.000000 126.000000"
 preserveAspectRatio="xMidYMid meet">
<metadata>
Created by potrace 1.15, written by Peter Selinger 2001-2017
</metadata>
<g transform="translate(0.000000,126.000000) scale(0.100000,-0.100000)"
fill="#000000" stroke="none">
<path d="M545 1244 c-240 -37 -441 -214 -511 -449 -29 -96 -25 -259 9 -358
124 -359 513 -526 855 -367 215 100 352 318 352 561 0 328 -262 601 -589 614
-47 2 -99 1 -116 -1z m246 -60 c99 -29 184 -82 258 -159 107 -113 161 -245
161 -395 0 -372 -349 -650 -709 -565 -108 26 -188 71 -272 155 -121 119 -173
242 -173 410 0 282 199 520 477 570 67 12 189 4 258 -16z"/>
<path d="M301 970 c-49 -12 -83 -40 -108 -90 -22 -42 -23 -56 -23 -245 0 -110
5 -216 10 -235 11 -41 61 -94 103 -109 18 -7 147 -11 350 -11 361 0 380 4 428
71 23 33 24 39 27 267 l3 233 -25 43 c-46 79 -56 81 -416 83 -173 1 -330 -2
-349 -7z m686 -47 c63 -30 73 -67 72 -293 0 -220 -7 -253 -58 -287 -34 -23
-37 -23 -368 -23 -292 0 -338 2 -363 16 -56 34 -60 51 -60 291 0 240 3 252 59
290 34 23 37 23 358 23 283 0 330 -2 360 -17z"/>
<path d="M304 900 c-12 -4 -31 -21 -43 -36 -21 -27 -22 -35 -19 -247 l3 -219
28 -24 28 -24 330 0 331 0 29 29 29 29 0 217 c0 129 -4 224 -10 236 -25 46
-50 49 -377 48 -169 0 -318 -4 -329 -9z m378 -61 c28 -15 50 -72 39 -102 -13
-33 -58 -67 -88 -67 -38 0 -83 51 -83 95 0 66 71 107 132 74z m-167 -274 c45
-44 29 -116 -30 -141 -59 -24 -119 17 -119 83 0 74 97 111 149 58z m369 -6
c32 -37 33 -68 5 -103 -31 -39 -63 -49 -104 -32 -91 38 -65 166 34 166 32 0
44 -6 65 -31z"/>
</g>
</svg>
