<svg version="1" xmlns="http://www.w3.org/2000/svg" width="190.667" height="184" viewBox="0 0 143 138"><path d="M59 6.5C40.9 9.8 23.4 23.1 15.1 40 8.4 53.8 6.7 65.8 9.4 80.2 15.1 109.7 40.8 131 71 131c40.1 0 70.1-37.3 61.4-76.3-2.7-12-7.8-21.1-16.9-30.3-9.8-9.9-20.4-15.7-33-17.9-9.7-1.7-13.8-1.7-23.5 0zm22.5 4c17.4 3.1 33.9 15.3 41.5 30.9 6.6 13.3 8.3 25.6 5.5 38.9-4.7 22.2-21.8 39.6-44.5 45.3-12 3-28.3.9-40.6-5.4-10.2-5.2-21.6-17.6-26.3-28.5-15.2-35.4 7.6-76 45.8-81.6 8.1-1.2 9.7-1.2 18.6.4z"/><path d="M58.5 20.9C47 23.9 40 30.8 40.9 38c.2 1.5 1.6 10.7 2.9 18.5 1.7 9.8 7.4 14 18.1 13.3 8.1-.6 15.3-4 20.4-9.7 6.8-7.6 6.4-13.7-1.6-24.3-11.3-15-14.2-16.9-22.2-14.9zm9.6 4l2.2 1.8-2.1 3.5c-2.5 4-10 8.4-15.9 9.4-11.6 1.8-10.8-8.7 1.1-14.2 6.2-2.9 11.6-3.1 14.7-.5z"/><path d="M89.3 53.1c-.2 5.3-3.9 10.8-9.9 14.8-11.5 7.6-24.9 8-30.8 1-2.9-3.4-3.3-2.5-1.2 2.6.8 1.9 3 4.4 4.8 5.5 4.5 2.7 14.8 2.7 22.2-.1 6.5-2.4 14.6-9.3 17.1-14.5 1.9-4 1.5-9.8-.7-12-1.1-1.1-1.3-.6-1.5 2.7z"/><path d="M92.6 66.5C90 71.4 84.9 75.7 77.7 79 70.6 82.4 64 83.5 58 82.1c-5.4-1.2-6-.8-2.5 1.5 7.6 5 21.2 2.9 31.8-5 3.9-2.8 7.9-9.9 7.5-13.1-.3-2.6-.3-2.6-2.2 1z"/><path d="M93.9 75.5C88.8 83.7 77 89.6 65.8 89.4c-3.8-.1-6.8 0-6.8.2s1.3 1 3 1.9c3.7 1.9 12.5 1.9 17.8.1 9.5-3.4 17.8-12.1 17-17.9-.3-2.3-.5-2.1-2.9 1.8zM97.5 90.5c-3.9 7.4-13.9 12.1-24.1 11.2l-6.3-.5 1.3 2.7c.8 1.4 2.6 3.7 4.1 5.1 6.2 5.8 22.6 1 27.4-8 2.2-4.2 2.3-4.8 1-9.3l-1.4-4.8-2 3.6z"/></svg>