<svg version="1" xmlns="http://www.w3.org/2000/svg" width="168" height="168" viewBox="0 0 126 126"><path d="M54.5 1.6C30.5 5.3 10.4 23 3.4 46.5.5 56.1.9 72.4 4.3 82.3c12.4 35.9 51.3 52.6 85.5 36.7 21.5-10 35.2-31.8 35.2-56.1 0-32.8-26.2-60.1-58.9-61.4-4.7-.2-9.9-.1-11.6.1zm24.6 6c9.9 2.9 18.4 8.2 25.8 15.9C115.6 34.8 121 48 121 63c0 37.2-34.9 65-70.9 56.5-10.8-2.6-18.8-7.1-27.2-15.5C10.8 92.1 5.6 79.8 5.6 63c0-28.2 19.9-52 47.7-57 6.7-1.2 18.9-.4 25.8 1.6z"/><path d="M30.1 29c-4.9 1.2-8.3 4-10.8 9-2.2 4.2-2.3 5.6-2.3 24.5 0 11 .5 21.6 1 23.5 1.1 4.1 6.1 9.4 10.3 10.9 1.8.7 14.7 1.1 35 1.1 36.1 0 38-.4 42.8-7.1 2.3-3.3 2.4-3.9 2.7-26.7l.3-23.3-2.5-4.3c-4.6-7.9-5.6-8.1-41.6-8.3-17.3-.1-33 .2-34.9.7zm68.6 4.7c6.3 3 7.3 6.7 7.2 29.3 0 22-.7 25.3-5.8 28.7C96.7 94 96.4 94 63.3 94c-29.2 0-33.8-.2-36.3-1.6-5.6-3.4-6-5.1-6-29.1s.3-25.2 5.9-29C30.3 32 30.6 32 62.7 32c28.3 0 33 .2 36 1.7z"/><path d="M30.4 36c-1.2.4-3.1 2.1-4.3 3.6-2.1 2.7-2.2 3.5-1.9 24.7l.3 21.9 2.8 2.4 2.8 2.4h66.1l2.9-2.9 2.9-2.9V63.5c0-12.9-.4-22.4-1-23.6-2.5-4.6-5-4.9-37.7-4.8-16.9 0-31.8.4-32.9.9zm37.8 6.1c2.8 1.5 5 7.2 3.9 10.2-1.3 3.3-5.8 6.7-8.8 6.7-3.8 0-8.3-5.1-8.3-9.5 0-6.6 7.1-10.7 13.2-7.4zM51.5 69.5c4.5 4.4 2.9 11.6-3 14.1-5.9 2.4-11.9-1.7-11.9-8.3 0-7.4 9.7-11.1 14.9-5.8zm36.9.6c3.2 3.7 3.3 6.8.5 10.3-3.1 3.9-6.3 4.9-10.4 3.2C69.4 79.8 72 67 81.9 67c3.2 0 4.4.6 6.5 3.1z"/></svg>