<?xml version="1.0" standalone="no"?>
<!DOCTYPE svg PUBLIC "-//W3C//DTD SVG 20010904//EN"
 "http://www.w3.org/TR/2001/REC-SVG-20010904/DTD/svg10.dtd">
<svg version="1.0" xmlns="http://www.w3.org/2000/svg"
 width="156.000000pt" height="144.000000pt" viewBox="0 0 156.000000 144.000000"
 preserveAspectRatio="xMidYMid meet">
<metadata>
Created by potrace 1.15, written by Peter Selinger 2001-2017
</metadata>
<g transform="translate(0.000000,144.000000) scale(0.100000,-0.100000)"
fill="#000000" stroke="none">
<path d="M674 1381 c-177 -28 -333 -127 -429 -271 -131 -198 -145 -436 -37
-645 46 -90 172 -218 259 -263 128 -67 302 -90 443 -56 115 27 204 77 295 168
128 127 185 263 185 441 0 115 -20 198 -71 296 -74 142 -203 251 -355 302 -88
28 -210 40 -290 28z m191 -46 c282 -50 485 -293 485 -580 0 -164 -54 -290
-175 -410 -120 -120 -249 -175 -410 -175 -161 0 -291 55 -411 175 -122 121
-174 245 -174 415 0 103 19 181 65 269 47 89 111 161 193 214 82 53 135 75
227 92 91 17 105 17 200 0z"/>
<path d="M625 1226 c-63 -20 -100 -42 -134 -82 -32 -36 -33 -38 -26 -107 4
-39 11 -84 16 -101 5 -17 9 -45 9 -62 0 -40 48 -107 89 -123 45 -19 146 -10
205 19 106 51 160 139 133 217 -12 35 -63 111 -105 158 -10 11 -26 32 -35 47
-10 16 -32 31 -54 37 -46 13 -48 13 -98 -3z m110 -36 c24 -27 10 -59 -45 -99
-76 -55 -201 -63 -200 -14 2 86 190 173 245 113z m155 -181 c0 -35 -30 -88
-69 -119 -66 -55 -71 -31 -7 33 24 25 47 58 51 76 7 35 25 42 25 10z m-216
-26 c-3 -10 6 -48 20 -85 28 -74 31 -70 -45 -83 -42 -8 -111 9 -129 30 -20 24
-5 28 31 10 30 -16 120 -18 135 -2 3 3 -2 30 -12 60 -9 30 -14 62 -11 71 8 22
16 20 11 -1z"/>
<path d="M948 907 c-6 -55 -40 -104 -101 -146 -49 -33 -134 -61 -186 -61 -44
0 -115 31 -130 57 -10 17 -10 17 -11 0 0 -10 7 -32 16 -48 55 -107 320 -61
414 71 29 41 37 108 18 145 l-15 28 -5 -46z"/>
<path d="M965 757 c-44 -61 -107 -104 -186 -128 -68 -21 -135 -21 -186 -2 -28
11 -5 -16 29 -33 68 -35 205 -13 287 46 44 33 85 89 95 133 9 38 -4 33 -39
-16z"/>
<path d="M990 683 c-41 -55 -113 -107 -173 -125 -23 -6 -73 -12 -110 -11 -65
0 -67 0 -45 -16 37 -26 171 -22 225 7 65 34 110 79 128 127 25 64 15 71 -25
18z"/>
<path d="M1007 609 c-63 -90 -213 -144 -318 -115 l-24 7 23 -20 c77 -67 265
-12 328 95 34 58 27 84 -9 33z"/>
<path d="M1035 541 c-9 -28 -72 -81 -124 -104 -35 -15 -59 -18 -118 -15 l-73
5 33 -46 c43 -59 87 -71 171 -47 101 30 154 97 142 181 -8 47 -20 58 -31 26z"/>
<path d="M1028 370 c-40 -40 -93 -60 -157 -60 -49 0 -47 -16 4 -26 53 -10 102
4 141 38 30 27 61 76 52 83 -2 1 -20 -15 -40 -35z"/>
</g>
</svg>
