<?xml version="1.0" standalone="no"?>
<!DOCTYPE svg PUBLIC "-//W3C//DTD SVG 20010904//EN"
 "http://www.w3.org/TR/2001/REC-SVG-20010904/DTD/svg10.dtd">
<svg version="1.0" xmlns="http://www.w3.org/2000/svg"
 width="133.000000pt" height="133.000000pt" viewBox="0 0 133.000000 133.000000"
 preserveAspectRatio="xMidYMid meet">

<g transform="translate(0.000000,133.000000) scale(0.100000,-0.100000)"
fill="#000000" stroke="none">
<path d="M523 1270 c-122 -32 -199 -76 -288 -165 -155 -155 -218 -348 -181
-555 44 -244 237 -448 476 -504 83 -20 207 -20 290 0 176 41 342 174 418 334
50 107 66 173 66 280 -1 109 -16 175 -66 279 -32 67 -56 101 -117 160 -163
163 -387 226 -598 171z m307 -46 c250 -70 430 -305 430 -561 0 -100 -15 -164
-62 -263 -71 -148 -212 -265 -378 -311 -68 -19 -233 -16 -305 5 -201 60 -363
229 -410 428 -79 336 145 665 489 718 65 11 165 3 236 -16z"/>
<path d="M545 1108 c-28 -17 -49 -41 -72 -83 -17 -32 -43 -67 -57 -78 -48 -34
-34 -42 69 -39 91 4 222 -16 266 -39 12 -6 18 -26 21 -69 5 -72 39 -117 77
-105 44 14 70 108 47 176 -8 24 -16 65 -19 91 -9 97 -90 159 -216 165 -65 3
-82 1 -116 -19z"/>
<path d="M445 882 c-27 -6 -30 -11 -33 -52 -3 -66 8 -79 52 -55 30 16 38 17
63 6 52 -24 82 -30 117 -20 38 10 79 53 74 77 -6 31 -197 62 -273 44z"/>
<path d="M697 755 c-22 -20 -39 -25 -80 -25 -29 1 -65 7 -82 14 -25 11 -35 11
-58 -1 -23 -11 -26 -18 -20 -41 29 -117 28 -116 59 -124 35 -9 116 -1 164 18
l35 14 -28 -25 c-15 -13 -44 -27 -65 -30 -73 -11 -87 -19 -90 -49 -3 -28 40
-127 64 -147 8 -7 36 7 95 50 46 33 122 83 168 111 47 27 80 50 74 50 -6 0
-13 9 -16 20 -3 13 -20 23 -51 31 -25 6 -46 17 -46 23 0 7 -13 25 -30 41 -16
15 -34 43 -41 62 -13 39 -16 40 -52 8z"/>
<path d="M1010 494 c-78 -36 -238 -140 -303 -197 l-39 -33 74 -63 c40 -35 78
-65 85 -68 7 -3 47 12 89 32 90 44 193 140 238 223 l28 54 -33 35 c-53 54 -57
55 -139 17z"/>
<path d="M373 479 c-45 -22 -84 -72 -107 -135 l-14 -42 36 -35 c21 -19 57 -49
81 -66 l45 -32 52 52 51 51 -37 72 c-21 40 -41 91 -45 114 -4 23 -10 42 -13
42 -4 0 -26 -9 -49 -21z"/>
<path d="M564 305 l-38 -32 27 -32 c14 -17 29 -32 32 -32 3 0 22 14 41 31 l35
31 -29 33 -29 33 -39 -32z"/>
<path d="M625 224 c-20 -16 -25 -24 -14 -24 21 0 53 24 48 38 -2 6 -17 0 -34
-14z"/>
<path d="M555 154 c-9 -14 -15 -27 -13 -30 2 -2 31 -6 64 -10 l59 -7 -34 37
c-41 43 -53 44 -76 10z"/>
</g>
</svg>
