<?xml version="1.0" standalone="no"?>
<!DOCTYPE svg PUBLIC "-//W3C//DTD SVG 20010904//EN"
 "http://www.w3.org/TR/2001/REC-SVG-20010904/DTD/svg10.dtd">
<svg version="1.0" xmlns="http://www.w3.org/2000/svg"
 width="128.000000pt" height="129.000000pt" viewBox="0 0 128.000000 129.000000"
 preserveAspectRatio="xMidYMid meet">
<metadata>
Created by potrace 1.15, written by Peter Selinger 2001-2017
</metadata>
<g transform="translate(0.000000,129.000000) scale(0.100000,-0.100000)"
fill="#000000" stroke="none">
<path d="M475 1251 c-203 -58 -366 -215 -431 -414 -31 -96 -38 -245 -15 -337
89 -363 476 -573 824 -447 201 73 354 245 403 452 22 95 15 246 -15 335 -69
200 -244 364 -446 415 -80 20 -243 19 -320 -4z m310 -36 c199 -52 371 -221
426 -420 18 -64 18 -236 0 -300 -56 -203 -225 -368 -426 -420 -76 -19 -214
-19 -289 0 -135 35 -269 132 -345 249 -129 197 -126 450 5 648 78 117 209 210
340 242 79 19 216 19 289 1z"/>
<path d="M526 1129 c-79 -19 -170 -71 -231 -133 -102 -103 -145 -207 -145
-351 0 -144 45 -252 144 -350 100 -99 212 -145 351 -145 132 0 241 46 342 143
277 265 151 734 -222 832 -64 16 -177 18 -239 4z m104 -41 c0 -17 -43 -292
-47 -297 -1 -2 -54 34 -118 80 l-115 83 32 34 c44 45 110 83 172 98 67 16 76
16 76 2z m103 -3 c31 -8 76 -27 99 -41 47 -29 98 -73 98 -85 0 -9 -222 -171
-227 -165 -3 3 -53 281 -53 299 0 10 19 9 83 -8z m-309 -275 l76 -105 -62 -12
c-35 -6 -87 -15 -117 -19 l-54 -7 5 75 c5 79 50 200 68 182 4 -5 43 -56 84
-114z m557 68 c15 -36 24 -78 27 -130 4 -71 2 -78 -14 -78 -24 0 -198 30 -203
35 -5 5 152 224 160 225 4 0 17 -24 30 -52z m-505 -288 c155 -26 185 -25 366
5 83 14 152 24 154 22 2 -1 -8 -26 -21 -55 -32 -70 -102 -137 -183 -175 -169
-79 -377 -10 -473 157 -38 67 -38 78 4 71 17 -3 86 -14 153 -25z"/>
</g>
</svg>
