<svg version="1" xmlns="http://www.w3.org/2000/svg" width="170.667" height="172" viewBox="0 0 128 129"><path d="M47.5 3.9C27.2 9.7 10.9 25.4 4.4 45.3 1.3 54.9.6 69.8 2.9 79c8.9 36.3 47.6 57.3 82.4 44.7 20.1-7.3 35.4-24.5 40.3-45.2 2.2-9.5 1.5-24.6-1.5-33.5-6.9-20-24.4-36.4-44.6-41.5-8-2-24.3-1.9-32 .4zm31 3.6c19.9 5.2 37.1 22.1 42.6 42 1.8 6.4 1.8 23.6 0 30-5.6 20.3-22.5 36.8-42.6 42-7.6 1.9-21.4 1.9-28.9 0-13.5-3.5-26.9-13.2-34.5-24.9-12.9-19.7-12.6-45 .5-64.8 7.8-11.7 20.9-21 34-24.2 7.9-1.9 21.6-1.9 28.9-.1z"/><path d="M52.6 16.1c-7.9 1.9-17 7.1-23.1 13.3C19.3 39.7 15 50.1 15 64.5c0 14.4 4.5 25.2 14.4 35 10 9.9 21.2 14.5 35.1 14.5 13.2 0 24.1-4.6 34.2-14.3 27.7-26.5 15.1-73.4-22.2-83.2-6.4-1.6-17.7-1.8-23.9-.4zM63 20.2c0 1.7-4.3 29.2-4.7 29.7-.1.2-5.4-3.4-11.8-8L35 33.6l3.2-3.4c4.4-4.5 11-8.3 17.2-9.8 6.7-1.6 7.6-1.6 7.6-.2zm10.3.3c3.1.8 7.6 2.7 9.9 4.1 4.7 2.9 9.8 7.3 9.8 8.5 0 .9-22.2 17.1-22.7 16.5-.3-.3-5.3-28.1-5.3-29.9 0-1 1.9-.9 8.3.8zM42.4 48L50 58.5l-6.2 1.2c-3.5.6-8.7 1.5-11.7 1.9l-5.4.7.5-7.5c.5-7.9 5-20 6.8-18.2.4.5 4.3 5.6 8.4 11.4zm55.7-6.8c1.5 3.6 2.4 7.8 2.7 13 .4 7.1.2 7.8-1.4 7.8-2.4 0-19.8-3-20.3-3.5s15.2-22.4 16-22.5c.4 0 1.7 2.4 3 5.2zM47.6 70c15.5 2.6 18.5 2.5 36.6-.5 8.3-1.4 15.2-2.4 15.4-2.2.2.1-.8 2.6-2.1 5.5-3.2 7-10.2 13.7-18.3 17.5-16.9 7.9-37.7 1-47.3-15.7-3.8-6.7-3.8-7.8.4-7.1 1.7.3 8.6 1.4 15.3 2.5z"/></svg>