<svg version="1" xmlns="http://www.w3.org/2000/svg" width="170.667" height="170.667" viewBox="0 0 128 128"><path d="M55.5 2c-15 2.3-25.1 7.5-36.1 18.5C6.8 33 1 46.7 1 64.3 1 82 6.9 96.1 19.4 108.6c12.7 12.7 26.4 18.4 44 18.4 32.5 0 58.1-22.5 62.7-55.1 2-15.1-2.1-31.1-11.4-44.1C106.3 16.1 93.4 7.2 80 3.7 72.6 1.8 61.6 1 55.5 2zm22.9 5.5c19.8 5.2 36.8 22.1 42.1 42.1 2 7.5 2 22.2 0 29.7-6.8 25.8-30.1 43.7-57 43.7-9.5 0-17.4-1.9-26.5-6.3-8.9-4.3-21.3-16.7-25.7-25.8C-5.2 57 12.6 17.5 48.9 7.4c6.5-1.8 22.5-1.7 29.5.1z"/><path d="M29.5 42.2c-.3 9.5-.5 27.2-.3 39.3l.3 22 4.2.3c4.7.3 4.6.5 5.8-9.1l.6-4.7H87l.4 2.2c.3 1.3.8 4.5 1.1 7.1l.6 4.8 4.2-.3c3.4-.2 4.2-.7 4.8-2.8.7-2.6.1-69.9-.7-73.8L97 25H51v4.5c0 3.3-.4 4.5-1.5 4.5S48 32.8 48 29.5s-.4-4.5-1.5-4.5-1.5 1.2-1.5 4.5V34H33v-4.5c0-3.2-.4-4.5-1.4-4.5-1.1 0-1.5 3.5-2.1 17.2zm44 19.4c.4 12.9.3 22-.2 22.5s-9.8.8-21.4.7l-20.4-.3-.3-4c-.2-2.2-.1-12.2.3-22.3l.7-18.2h40.5l.8 21.6z"/><path d="M36 59.5V76h33V59.5c0-15.6-.1-16.5-1.9-16.5-1.8 0-1.9.6-1.4 10l.6 10H54v-6.3c0-3.4.4-7.9.9-10l.9-3.7H36v16.5zM47.6 95.6c-.3.9-.6 2.4-.6 3.5 0 1.8.9 1.9 16.5 1.9H80v-7H64.1c-13.6 0-16 .2-16.5 1.6z"/></svg>