<?xml version="1.0" standalone="no"?>
<!DOCTYPE svg PUBLIC "-//W3C//DTD SVG 20010904//EN"
 "http://www.w3.org/TR/2001/REC-SVG-20010904/DTD/svg10.dtd">
<svg version="1.0" xmlns="http://www.w3.org/2000/svg"
 width="128.000000pt" height="128.000000pt" viewBox="0 0 128.000000 128.000000"
 preserveAspectRatio="xMidYMid meet">
<metadata>
Created by potrace 1.15, written by Peter Selinger 2001-2017
</metadata>
<g transform="translate(0.000000,128.000000) scale(0.100000,-0.100000)"
fill="#000000" stroke="none">
<path d="M555 1260 c-150 -23 -251 -75 -361 -185 -126 -125 -184 -262 -184
-438 0 -177 59 -318 184 -443 127 -127 264 -184 440 -184 325 0 581 225 627
551 20 151 -21 311 -114 441 -84 117 -213 206 -347 241 -74 19 -184 27 -245
17z m229 -55 c198 -52 368 -221 421 -421 20 -75 20 -222 0 -297 -68 -258 -301
-437 -570 -437 -95 0 -174 19 -265 63 -89 43 -213 167 -257 258 -165 339 13
734 376 835 65 18 225 17 295 -1z"/>
<path d="M295 858 c-3 -95 -5 -272 -3 -393 l3 -220 42 -3 c47 -3 46 -5 58 91
l6 47 234 0 235 0 4 -22 c3 -13 8 -45 11 -71 l6 -48 42 3 c34 2 42 7 48 28 7
26 1 699 -7 738 l-4 22 -230 0 -230 0 0 -45 c0 -33 -4 -45 -15 -45 -11 0 -15
12 -15 45 0 33 -4 45 -15 45 -11 0 -15 -12 -15 -45 l0 -45 -60 0 -60 0 0 45
c0 32 -4 45 -14 45 -11 0 -15 -35 -21 -172z m440 -194 c4 -129 3 -220 -2 -225
-5 -5 -98 -8 -214 -7 l-204 3 -3 40 c-2 22 -1 122 3 223 l7 182 203 0 202 0 8
-216z"/>
<path d="M360 685 l0 -165 165 0 165 0 0 165 c0 156 -1 165 -19 165 -18 0 -19
-6 -14 -100 l6 -100 -62 0 -61 0 0 63 c0 34 4 79 9 100 l9 37 -99 0 -99 0 0
-165z"/>
<path d="M476 324 c-3 -9 -6 -24 -6 -35 0 -18 9 -19 165 -19 l165 0 0 35 0 35
-159 0 c-136 0 -160 -2 -165 -16z"/>
</g>
</svg>
