<?xml version="1.0" standalone="no"?>
<!DOCTYPE svg PUBLIC "-//W3C//DTD SVG 20010904//EN"
 "http://www.w3.org/TR/2001/REC-SVG-20010904/DTD/svg10.dtd">
<svg version="1.0" xmlns="http://www.w3.org/2000/svg"
 width="141.000000pt" height="143.000000pt" viewBox="0 0 141.000000 143.000000"
 preserveAspectRatio="xMidYMid meet">

<g transform="translate(0.000000,143.000000) scale(0.100000,-0.100000)"
fill="#000000" stroke="none">
<path d="M570 1324 c-89 -19 -213 -82 -282 -144 -69 -61 -138 -163 -175 -256
-26 -64 -28 -80 -28 -214 0 -135 2 -150 28 -215 101 -255 330 -415 592 -415
175 0 317 59 441 184 88 89 123 143 161 256 34 96 38 260 9 355 -50 168 -181
327 -326 397 -135 65 -279 83 -420 52z m280 -46 c176 -41 340 -189 410 -373
31 -82 39 -244 16 -334 -78 -304 -377 -497 -674 -437 -102 21 -159 45 -239
102 -257 184 -318 542 -137 807 136 199 380 291 624 235z"/>
<path d="M374 1099 c-9 -15 -22 -666 -15 -734 l6 -50 43 -3 c48 -4 48 -4 57
81 l6 57 234 0 c256 0 245 3 245 -63 0 -64 9 -77 51 -77 34 0 41 4 50 28 13
35 1 741 -13 760 -8 9 -67 12 -234 12 l-224 0 0 -50 c0 -37 -4 -50 -14 -50
-11 0 -16 14 -18 47 -4 66 -28 70 -28 4 l0 -51 -54 0 -55 0 -3 47 c-3 46 -19
66 -34 42z m594 -71 c7 -7 12 -21 12 -33 0 -12 -5 -26 -12 -33 -7 -7 -21 -12
-33 -12 -40 0 -61 50 -33 78 7 7 21 12 33 12 12 0 26 -5 33 -12z m-168 -176
c0 -55 3 -154 7 -220 l6 -122 -216 0 -217 0 0 53 c0 30 3 129 7 220 l6 167
204 0 203 0 0 -98z m189 53 c5 -6 10 -50 25 -235 7 -89 -5 -44 -24 90 -6 46
-16 93 -21 102 -10 19 -54 25 -64 9 -3 -5 -12 -56 -21 -113 -8 -57 -19 -121
-24 -143 -8 -35 -9 -33 -5 20 14 184 26 260 43 273 16 13 77 11 91 -3z m-39
-91 c0 -16 -16 -19 -25 -4 -8 13 4 32 16 25 5 -4 9 -13 9 -21z"/>
<path d="M430 760 l0 -170 165 0 165 0 0 170 0 170 -165 0 -165 0 0 -170z
m294 114 c3 -26 6 -69 6 -95 l0 -49 -60 0 -60 0 0 43 c0 23 3 66 6 95 l7 52
47 0 47 0 7 -46z m-249 -19 c0 -30 -5 -50 -12 -52 -10 -4 -13 11 -13 52 0 41
3 56 13 53 7 -3 12 -23 12 -53z m45 -1 c0 -40 -4 -55 -12 -52 -14 5 -23 70
-14 94 12 32 26 11 26 -42z m200 -194 l0 -40 -50 0 -50 0 0 40 0 40 50 0 50 0
0 -40z m-195 -25 c0 -15 -8 -21 -29 -23 -33 -4 -51 10 -42 33 9 25 71 16 71
-10z m49 -6 c-3 -5 -10 -7 -15 -3 -5 3 -7 10 -3 15 3 5 10 7 15 3 5 -3 7 -10
3 -15z"/>
<path d="M662 763 c2 -10 12 -18 23 -18 11 0 21 8 23 18 3 13 -3 17 -23 17
-20 0 -26 -4 -23 -17z"/>
<path d="M635 660 c-11 -18 10 -32 41 -28 40 4 38 32 -3 36 -17 2 -34 -2 -38
-8z"/>
<path d="M318 599 c-15 -8 -18 -25 -18 -112 0 -115 6 -147 26 -147 11 0 14 27
14 135 0 74 -1 135 -2 135 -2 0 -11 -5 -20 -11z"/>
<path d="M1075 470 c0 -111 2 -130 15 -128 37 7 38 258 2 258 -15 0 -17 -15
-17 -130z"/>
<path d="M547 413 c-4 -3 -7 -21 -7 -40 l0 -33 165 0 165 0 0 40 0 40 -158 0
c-87 0 -162 -3 -165 -7z"/>
</g>
</svg>
