<?xml version="1.0" standalone="no"?>
<!DOCTYPE svg PUBLIC "-//W3C//DTD SVG 20010904//EN"
 "http://www.w3.org/TR/2001/REC-SVG-20010904/DTD/svg10.dtd">
<svg version="1.0" xmlns="http://www.w3.org/2000/svg"
 width="177.000000pt" height="176.000000pt" viewBox="0 0 177.000000 176.000000"
 preserveAspectRatio="xMidYMid meet">
<metadata>
Created by potrace 1.15, written by Peter Selinger 2001-2017
</metadata>
<g transform="translate(0.000000,176.000000) scale(0.100000,-0.100000)"
fill="#000000" stroke="none">
<path d="M802 1530 c-227 -41 -407 -194 -490 -418 -34 -92 -42 -243 -17 -345
80 -336 423 -550 755 -471 120 28 206 77 300 173 119 120 169 229 185 398 26
280 -174 564 -455 647 -68 20 -208 28 -278 16z m213 -45 c310 -55 525 -360
472 -669 -69 -397 -484 -608 -847 -430 -52 26 -95 58 -145 108 -318 318 -177
858 256 980 100 28 155 30 264 11z"/>
<path d="M748 1325 c-66 -35 -68 -45 -9 -45 27 0 53 5 56 10 9 14 222 13 227
-1 2 -6 26 -9 58 -7 l55 3 -50 30 c-47 28 -57 30 -170 32 -111 3 -123 1 -167
-22z"/>
<path d="M839 1251 c-52 -52 -42 -61 66 -61 99 0 105 3 89 45 -9 22 -57 45
-94 45 -21 0 -41 -9 -61 -29z"/>
<path d="M511 1234 c-17 -22 -21 -41 -21 -105 l0 -79 421 0 421 0 -3 86 c-5
120 -10 124 -180 124 l-129 0 0 -50 0 -50 -115 0 -115 0 0 50 0 50 -129 0
c-128 0 -130 0 -150 -26z"/>
<path d="M544 1015 c-9 -22 4 -35 37 -35 24 0 29 4 29 25 0 21 -5 25 -30 25
-18 0 -33 -6 -36 -15z"/>
<path d="M660 1005 l0 -25 115 0 115 0 0 25 0 25 -115 0 -115 0 0 -25z"/>
<path d="M930 1005 l0 -25 115 0 115 0 0 25 0 25 -115 0 -115 0 0 -25z"/>
<path d="M1204 1015 c-9 -22 4 -35 37 -35 33 0 51 26 28 41 -22 14 -59 11 -65
-6z"/>
<path d="M544 945 c-9 -22 4 -35 37 -35 24 0 29 4 29 25 0 21 -5 25 -30 25
-18 0 -33 -6 -36 -15z"/>
<path d="M660 935 l0 -25 115 0 115 0 0 25 0 25 -115 0 -115 0 0 -25z"/>
<path d="M930 935 l0 -25 115 0 115 0 0 25 0 25 -115 0 -115 0 0 -25z"/>
<path d="M1202 938 c3 -25 42 -36 67 -19 25 16 4 41 -34 41 -32 0 -36 -3 -33
-22z"/>
<path d="M547 883 c-18 -17 -5 -33 28 -33 28 0 35 4 35 20 0 15 -7 20 -28 20
-16 0 -32 -3 -35 -7z"/>
<path d="M660 865 l0 -25 115 0 115 0 0 25 0 25 -115 0 -115 0 0 -25z"/>
<path d="M930 865 l0 -25 115 0 115 0 0 25 0 25 -115 0 -115 0 0 -25z"/>
<path d="M1200 870 c0 -18 5 -21 38 -18 25 2 37 8 37 18 0 10 -12 16 -37 18
-33 3 -38 0 -38 -18z"/>
<path d="M540 800 c0 -16 7 -20 35 -20 28 0 35 4 35 20 0 16 -7 20 -35 20 -28
0 -35 -4 -35 -20z"/>
<path d="M660 795 l0 -25 115 0 115 0 0 25 0 25 -115 0 -115 0 0 -25z"/>
<path d="M930 795 l0 -25 115 0 115 0 0 25 0 25 -115 0 -115 0 0 -25z"/>
<path d="M1200 800 c0 -18 5 -21 38 -18 25 2 37 8 37 18 0 10 -12 16 -37 18
-33 3 -38 0 -38 -18z"/>
<path d="M490 671 c0 -64 4 -83 21 -105 l20 -26 374 0 c448 0 418 -9 424 124
l3 86 -421 0 -421 0 0 -79z"/>
</g>
</svg>
