<?xml version="1.0" standalone="no"?>
<!DOCTYPE svg PUBLIC "-//W3C//DTD SVG 20010904//EN"
 "http://www.w3.org/TR/2001/REC-SVG-20010904/DTD/svg10.dtd">
<svg version="1.0" xmlns="http://www.w3.org/2000/svg"
 width="162.000000pt" height="151.000000pt" viewBox="0 0 162.000000 151.000000"
 preserveAspectRatio="xMidYMid meet">
<metadata>
Created by potrace 1.15, written by Peter Selinger 2001-2017
</metadata>
<g transform="translate(0.000000,151.000000) scale(0.100000,-0.100000)"
fill="#000000" stroke="none">
<path d="M662 1345 c-287 -65 -492 -321 -492 -615 0 -106 18 -181 71 -288 69
-141 196 -251 361 -310 64 -23 88 -26 193 -26 104 0 130 3 198 27 228 79 386
266 425 500 14 88 14 106 0 194 -39 235 -199 423 -425 499 -97 33 -237 41
-331 19z m253 -40 c117 -25 207 -75 295 -163 97 -98 145 -188 167 -320 14 -83
14 -101 0 -184 -22 -132 -70 -222 -166 -319 -206 -205 -507 -235 -744 -72
-121 82 -201 196 -238 341 -34 133 -17 288 45 409 117 232 387 362 641 308z"/>
<path d="M782 1214 c3 -17 14 -19 113 -21 108 -2 109 -1 75 14 -19 9 -70 18
-113 21 -73 4 -79 3 -75 -14z"/>
<path d="M737 1203 c-3 -5 -8 -29 -11 -55 -7 -46 -6 -48 26 -68 40 -24 140
-27 178 -5 35 20 69 18 108 -5 l32 -20 0 30 c0 19 -11 42 -29 62 l-30 33 -110
-2 c-101 -3 -112 -1 -123 17 -13 20 -33 26 -41 13z"/>
<path d="M590 1069 c-109 -59 -228 -208 -202 -250 7 -10 9 -26 5 -35 -7 -19
20 -44 49 -44 25 0 23 26 -3 33 -19 5 -21 11 -15 38 20 103 103 211 198 258
34 17 53 31 42 31 -10 0 -44 -14 -74 -31z"/>
<path d="M630 1060 c-73 -38 -156 -149 -185 -247 -5 -19 -1 -23 34 -33 38 -10
39 -12 31 -39 l-8 -29 84 -21 c109 -27 122 -27 130 5 6 22 11 25 42 22 l36 -3
27 131 c15 72 30 140 33 151 6 17 1 21 -24 25 -19 3 -30 0 -30 -8 0 -6 -7 -17
-15 -24 -12 -10 -15 -7 -21 14 -7 29 -31 40 -68 30 -20 -5 -26 -12 -26 -35 0
-32 -11 -37 -34 -13 -21 20 -5 51 35 68 16 7 26 15 22 19 -10 11 -25 8 -63
-13z"/>
<path d="M938 1040 c-26 -9 -50 -19 -53 -21 -6 -7 -67 -370 -63 -374 2 -2 21
-5 43 -7 37 -3 40 -1 43 25 3 21 8 27 20 23 9 -2 40 -7 67 -11 91 -11 105 -16
105 -35 0 -21 27 -30 91 -30 l46 0 7 40 c8 52 -15 164 -49 230 -33 65 -97 136
-147 161 -43 22 -47 22 -110 -1z"/>
<path d="M350 678 c0 -69 23 -158 58 -222 34 -64 115 -147 170 -175 l42 -21 2
130 c1 71 2 139 2 151 1 17 -13 25 -79 47 -72 24 -80 30 -83 55 -3 22 -10 29
-32 34 -20 3 -30 12 -32 27 -2 13 -11 22 -25 24 -21 3 -23 0 -23 -50z"/>
<path d="M666 578 c-4 -13 -10 -86 -13 -163 -7 -183 -10 -178 129 -183 l104
-4 51 56 c51 56 108 169 115 231 3 33 -6 37 -127 50 -61 6 -64 6 -67 -17 -3
-20 -8 -23 -43 -20 -58 4 -65 8 -65 42 0 28 -2 30 -39 30 -31 0 -40 -4 -45
-22z"/>
<path d="M1190 536 c0 -33 -18 -44 -74 -48 l-48 -3 -19 -59 c-23 -67 -40 -98
-83 -145 -31 -33 -31 -33 -6 -26 87 26 185 114 239 215 26 49 30 64 21 75 -18
22 -30 18 -30 -9z"/>
</g>
</svg>
