<svg version="1" xmlns="http://www.w3.org/2000/svg" width="170.667" height="170.667" viewBox="0 0 128 128"><path d="M50.2 2.5C21.5 9 1 34.6 1 64c0 10.6 1.8 18.1 7.1 28.8 6.9 14.1 19.6 25.1 36.1 31 6.4 2.3 8.8 2.6 19.3 2.6 10.4 0 13-.3 19.8-2.7 22.8-7.9 38.6-26.6 42.5-50 1.4-8.8 1.4-10.6 0-19.4-3.9-23.5-19.9-42.3-42.5-49.9C73.6 1.1 59.6.3 50.2 2.5zm25.3 4C87.2 9 96.2 14 105 22.8c9.7 9.8 14.5 18.8 16.7 32 1.4 8.3 1.4 10.1 0 18.4-2.2 13.2-7 22.2-16.6 31.9-20.6 20.5-50.7 23.5-74.4 7.2C10.3 98.4.9 73.5 6.9 49.8 10.5 35.7 18 24.6 29.5 16.5c14-10 29.7-13.4 46-10z"/><path d="M57.7 16.7c-.3.5-.8 2.9-1.1 5.5-.7 4.6-.6 4.8 2.6 6.8 4 2.4 14 2.7 17.8.5 3.5-2 6.9-1.8 10.8.5l3.2 2v-3c0-1.9-1.1-4.2-2.9-6.2l-3-3.3-11 .2c-10.1.3-11.2.1-12.3-1.7-1.3-2-3.3-2.6-4.1-1.3zM47 31c-7.3 3.8-15.6 14.9-18.5 24.7-.5 1.9-.1 2.3 3.4 3.3 3.8 1 3.9 1.2 3.1 3.9l-.8 2.9 8.4 2.1c10.9 2.7 12.2 2.7 13-.5.6-2.2 1.1-2.5 4.2-2.2l3.6.3 2.7-13.1c1.5-7.2 3-14 3.3-15.1.6-1.7.1-2.1-2.4-2.5-1.9-.3-3 0-3 .8 0 .6-.7 1.7-1.5 2.4-1.2 1-1.5.7-2.1-1.4-.7-2.9-3.1-4-6.8-3-2 .5-2.6 1.2-2.6 3.5 0 3.2-1.1 3.7-3.4 1.3-2.1-2-.5-5.1 3.5-6.8 1.6-.7 2.6-1.5 2.2-1.9-1-1.1-2.5-.8-6.3 1.3z"/><path d="M77.8 33c-2.6.9-5 1.9-5.3 2.1-.6.7-6.7 37-6.3 37.4.2.2 2.1.5 4.3.7 3.7.3 4 .1 4.3-2.5.3-2.1.8-2.7 2-2.3.9.2 4 .7 6.7 1.1C92.6 70.6 94 71.1 94 73c0 2.1 2.7 3 9.1 3h4.6l.7-4c.8-5.2-1.5-16.4-4.9-23-3.3-6.5-9.7-13.6-14.7-16.1-4.3-2.2-4.7-2.2-11 .1zM19 69.2c0 6.9 2.3 15.8 5.8 22.2 3.4 6.4 11.5 14.7 17 17.5L46 111l.2-13c.1-7.1.2-13.9.2-15.1.1-1.7-1.3-2.5-7.9-4.7-7.2-2.4-8-3-8.3-5.5-.3-2.2-1-2.9-3.2-3.4-2-.3-3-1.2-3.2-2.7-.2-1.3-1.1-2.2-2.5-2.4-2.1-.3-2.3 0-2.3 5zM50.6 79.2c-.4 1.3-1 8.6-1.3 16.3-.7 18.3-1 17.8 12.9 18.3l10.4.4 5.1-5.6c5.1-5.6 10.8-16.9 11.5-23.1.3-3.3-.6-3.7-12.7-5-6.1-.6-6.4-.6-6.7 1.7-.3 2-.8 2.3-4.3 2-5.8-.4-6.5-.8-6.5-4.2 0-2.8-.2-3-3.9-3-3.1 0-4 .4-4.5 2.2zM103 83.4c0 3.3-1.8 4.4-7.4 4.8l-4.8.3-1.9 5.9c-2.3 6.7-4 9.8-8.3 14.5-3.1 3.3-3.1 3.3-.6 2.6 8.7-2.6 18.5-11.4 23.9-21.5 2.6-4.9 3-6.4 2.1-7.5-1.8-2.2-3-1.8-3 .9z"/></svg>