<?xml version="1.0" standalone="no"?>
<!DOCTYPE svg PUBLIC "-//W3C//DTD SVG 20010904//EN"
 "http://www.w3.org/TR/2001/REC-SVG-20010904/DTD/svg10.dtd">
<svg version="1.0" xmlns="http://www.w3.org/2000/svg"
 width="128.000000pt" height="128.000000pt" viewBox="0 0 128.000000 128.000000"
 preserveAspectRatio="xMidYMid meet">
<metadata>
Created by potrace 1.15, written by Peter Selinger 2001-2017
</metadata>
<g transform="translate(0.000000,128.000000) scale(0.100000,-0.100000)"
fill="#000000" stroke="none">
<path d="M531 1259 c-306 -51 -541 -353 -516 -663 12 -161 79 -300 199 -413
248 -236 629 -230 872 14 118 117 184 275 184 439 0 393 -349 688 -739 623z
m271 -55 c241 -72 410 -282 426 -530 21 -350 -274 -644 -623 -620 -277 19
-495 218 -542 494 -14 82 -14 101 0 181 41 245 230 441 468 486 85 16 193 12
271 -11z"/>
<path d="M477 1092 c-15 -15 -27 -33 -27 -38 0 -5 17 -27 38 -47 41 -40 80
-48 102 -22 7 8 29 15 50 15 21 0 43 -7 50 -15 23 -28 63 -18 108 28 l42 43
-33 32 -33 32 -135 0 c-135 0 -135 0 -162 -28z"/>
<path d="M447 832 l-107 -107 0 -90 0 -90 103 -103 102 -102 95 0 95 0 102
102 103 103 0 95 0 95 -102 102 -103 103 -90 0 -90 0 -108 -108z m266 27 c49
-13 115 -73 138 -124 11 -24 19 -64 19 -100 0 -210 -264 -307 -401 -146 -63
73 -75 161 -35 247 49 106 162 156 279 123z"/>
<path d="M549 817 c-95 -51 -134 -163 -90 -262 16 -37 24 -46 33 -37 9 9 8 20
-5 47 -68 143 86 297 230 229 24 -12 37 -14 45 -6 7 7 -2 17 -30 31 -56 29
-126 28 -183 -2z"/>
<path d="M581 762 c-164 -83 -41 -325 125 -246 51 24 77 74 72 135 -6 56 -33
93 -85 115 -43 19 -71 18 -112 -4z"/>
<path d="M785 761 c-3 -6 1 -24 10 -40 8 -17 15 -54 15 -84 0 -127 -130 -206
-247 -151 -45 22 -66 5 -26 -22 18 -12 52 -20 95 -22 59 -4 73 -1 112 22 50
29 90 88 100 146 11 61 -38 185 -59 151z"/>
<path d="M187 802 c-27 -28 -27 -30 -27 -163 l0 -135 33 -32 33 -32 42 43 c45
45 54 84 27 107 -8 7 -15 29 -15 50 0 21 7 43 15 50 27 22 18 63 -23 103 -21
20 -42 37 -48 37 -6 0 -22 -13 -37 -28z"/>
<path d="M1012 787 c-46 -47 -52 -75 -22 -102 11 -10 20 -29 20 -42 0 -14 -9
-36 -20 -50 -11 -14 -20 -34 -20 -44 0 -21 66 -99 84 -99 7 0 26 15 44 33 l32
33 0 125 0 125 -33 32 c-18 18 -35 32 -38 32 -3 0 -24 -19 -47 -43z"/>
<path d="M490 265 l-44 -45 34 -35 34 -35 125 0 125 0 38 37 38 37 -42 43
c-47 48 -73 53 -111 23 -14 -11 -36 -20 -50 -20 -13 0 -32 9 -42 20 -28 31
-57 24 -105 -25z"/>
</g>
</svg>
