<?xml version="1.0" standalone="no"?>
<!DOCTYPE svg PUBLIC "-//W3C//DTD SVG 20010904//EN"
 "http://www.w3.org/TR/2001/REC-SVG-20010904/DTD/svg10.dtd">
<svg version="1.0" xmlns="http://www.w3.org/2000/svg"
 width="169.000000pt" height="156.000000pt" viewBox="0 0 169.000000 156.000000"
 preserveAspectRatio="xMidYMid meet">
<metadata>
Created by potrace 1.15, written by Peter Selinger 2001-2017
</metadata>
<g transform="translate(0.000000,156.000000) scale(0.100000,-0.100000)"
fill="#000000" stroke="none">
<path d="M741 1419 c-309 -55 -541 -352 -516 -663 12 -161 79 -300 199 -413
248 -236 629 -230 872 14 81 80 142 189 170 303 21 85 15 239 -15 330 -61 191
-216 346 -405 406 -91 29 -219 39 -305 23z m271 -55 c241 -72 410 -282 426
-530 21 -350 -274 -644 -623 -620 -277 19 -495 218 -542 494 -14 82 -14 101 0
181 41 245 230 441 468 486 85 16 193 12 271 -11z"/>
<path d="M687 1252 c-15 -15 -27 -33 -27 -38 0 -5 17 -27 38 -47 41 -40 80
-48 102 -22 7 8 29 15 50 15 21 0 43 -7 50 -15 23 -28 63 -18 108 28 l42 43
-33 32 -33 32 -135 0 c-135 0 -135 0 -162 -28z"/>
<path d="M1055 1120 c-27 -28 -28 -31 -12 -47 16 -16 18 -15 42 7 28 26 31 42
12 59 -10 8 -20 4 -42 -19z"/>
<path d="M601 1127 c-8 -10 -4 -20 19 -42 25 -24 32 -26 45 -15 14 12 13 16
-11 42 -31 32 -37 33 -53 15z"/>
<path d="M657 992 l-107 -107 0 -90 0 -90 103 -103 102 -102 95 0 95 0 102
102 103 103 0 95 0 95 -102 102 -103 103 -90 0 -90 0 -108 -108z m266 27 c49
-13 115 -73 138 -124 11 -24 19 -64 19 -100 0 -210 -264 -307 -401 -146 -63
73 -75 161 -35 247 49 106 162 156 279 123z"/>
<path d="M759 977 c-95 -51 -134 -163 -90 -262 16 -37 24 -46 33 -37 9 9 8 20
-5 47 -68 143 86 297 230 229 24 -12 37 -14 45 -6 7 7 -2 17 -30 31 -56 29
-126 28 -183 -2z"/>
<path d="M791 922 c-164 -83 -41 -325 125 -246 51 24 77 74 72 135 -6 56 -33
93 -85 115 -43 19 -71 18 -112 -4z"/>
<path d="M995 921 c-3 -6 1 -24 10 -40 8 -17 15 -54 15 -84 0 -127 -130 -206
-247 -151 -45 22 -66 5 -26 -22 18 -12 52 -20 95 -22 59 -4 73 -1 112 22 50
29 90 88 100 146 11 61 -38 185 -59 151z"/>
<path d="M520 1045 c-11 -13 -8 -21 15 -45 22 -23 32 -27 42 -19 19 16 16 33
-10 57 -28 26 -31 27 -47 7z"/>
<path d="M1137 1032 c-26 -28 -27 -29 -9 -45 17 -16 20 -15 47 13 23 24 26 32
15 45 -17 21 -22 19 -53 -13z"/>
<path d="M397 962 c-27 -28 -27 -30 -27 -163 l0 -135 33 -32 33 -32 42 43 c45
45 54 84 27 107 -8 7 -15 29 -15 50 0 21 7 43 15 50 27 22 18 63 -23 103 -21
20 -42 37 -48 37 -6 0 -22 -13 -37 -28z"/>
<path d="M1222 947 c-46 -47 -52 -75 -22 -102 11 -10 20 -29 20 -42 0 -14 -9
-36 -20 -50 -11 -14 -20 -34 -20 -44 0 -21 66 -99 84 -99 7 0 26 15 44 33 l32
33 0 125 0 125 -33 32 c-18 18 -35 32 -38 32 -3 0 -24 -19 -47 -43z"/>
<path d="M535 600 c-28 -29 -29 -60 -2 -60 16 0 57 41 57 57 0 6 -6 16 -13 22
-10 8 -20 4 -42 -19z"/>
<path d="M1121 607 c-8 -10 -4 -20 19 -42 25 -24 32 -26 45 -15 14 12 13 16
-11 42 -31 32 -37 33 -53 15z"/>
<path d="M615 510 c-27 -29 -28 -31 -12 -47 16 -16 19 -16 49 14 27 27 29 34
18 47 -17 22 -22 20 -55 -14z"/>
<path d="M1040 525 c-11 -13 -8 -21 15 -45 22 -23 32 -27 42 -19 19 16 16 33
-10 57 -28 26 -31 27 -47 7z"/>
<path d="M700 425 l-44 -45 34 -35 34 -35 125 0 125 0 38 37 38 37 -42 43
c-47 48 -73 53 -111 23 -14 -11 -36 -20 -50 -20 -13 0 -32 9 -42 20 -28 31
-57 24 -105 -25z"/>
</g>
</svg>
