<svg version="1" xmlns="http://www.w3.org/2000/svg" width="170.667" height="170.667" viewBox="0 0 128 128"><path d="M53.1 2.1C22.5 7.2-1 37.4 1.5 68.4c1.2 16.1 7.9 30 19.9 41.3 24.8 23.6 62.9 23 87.2-1.4C120.4 96.6 127 80.8 127 64.4c0-39.3-34.9-68.8-73.9-62.3zm27.1 5.5c24.1 7.2 41 28.2 42.6 53 2.1 35-27.4 64.4-62.3 62-27.7-1.9-49.5-21.8-54.2-49.4-1.4-8.2-1.4-10.1 0-18.1 4.1-24.5 23-44.1 46.8-48.6 8.5-1.6 19.3-1.2 27.1 1.1z"/><path d="M47.7 18.8c-1.5 1.5-2.7 3.3-2.7 3.8s1.7 2.7 3.8 4.7c4.1 4 8 4.8 10.2 2.2.7-.8 2.9-1.5 5-1.5s4.3.7 5 1.5c2.3 2.8 6.3 1.8 10.8-2.8l4.2-4.3-3.3-3.2-3.3-3.2H63.9c-13.5 0-13.5 0-16.2 2.8zM44.7 44.8L34 55.5v18l10.3 10.3L54.5 94h19l10.2-10.2L94 73.5v-19L83.8 44.3 73.5 34h-18L44.7 44.8zm26.6-2.7c4.9 1.3 11.5 7.3 13.8 12.4 1.1 2.4 1.9 6.4 1.9 10 0 21-26.4 30.7-40.1 14.6-6.3-7.3-7.5-16.1-3.5-24.7 4.9-10.6 16.2-15.6 27.9-12.3z"/><path d="M54.9 46.3c-9.5 5.1-13.4 16.3-9 26.2 1.6 3.7 2.4 4.6 3.3 3.7.9-.9.8-2-.5-4.7-6.8-14.3 8.6-29.7 23-22.9 2.4 1.2 3.7 1.4 4.5.6.7-.7-.2-1.7-3-3.1-5.6-2.9-12.6-2.8-18.3.2z"/><path d="M58.1 51.8C41.7 60.1 54 84.3 70.6 76.4c5.1-2.4 7.7-7.4 7.2-13.5-.6-5.6-3.3-9.3-8.5-11.5-4.3-1.9-7.1-1.8-11.2.4z"/><path d="M78.5 51.9c-.3.6.1 2.4 1 4 .8 1.7 1.5 5.4 1.5 8.4C81 77 68 84.9 56.3 79.4c-4.5-2.2-6.6-.5-2.6 2.2 1.8 1.2 5.2 2 9.5 2.2 5.9.4 7.3.1 11.2-2.2 5-2.9 9-8.8 10-14.6 1.1-6.1-3.8-18.5-5.9-15.1zM18.7 47.8c-2.7 2.8-2.7 3-2.7 16.3v13.5l3.3 3.2 3.3 3.2 4.2-4.3c4.5-4.5 5.4-8.4 2.7-10.7-.8-.7-1.5-2.9-1.5-5s.7-4.3 1.5-5c2.7-2.2 1.8-6.3-2.3-10.3-2.1-2-4.2-3.7-4.8-3.7-.6 0-2.2 1.3-3.7 2.8zM101.2 49.3C96.6 54 96 56.8 99 59.5c1.1 1 2 2.9 2 4.2 0 1.4-.9 3.6-2 5s-2 3.4-2 4.4c0 2.1 6.6 9.9 8.4 9.9.7 0 2.6-1.5 4.4-3.3l3.2-3.3v-25l-3.3-3.2c-1.8-1.8-3.5-3.2-3.8-3.2-.3 0-2.4 1.9-4.7 4.3zM49 101.5l-4.4 4.5 3.4 3.5 3.4 3.5h25l3.8-3.7 3.8-3.7-4.2-4.3c-4.7-4.8-7.3-5.3-11.1-2.3-1.4 1.1-3.6 2-5 2-1.3 0-3.2-.9-4.2-2-2.8-3.1-5.7-2.4-10.5 2.5z"/></svg>