<svg version="1" xmlns="http://www.w3.org/2000/svg" width="168" height="168" viewBox="0 0 126 126"><path d="M47.2 3C36 6 28.5 10.5 19.4 19.5 6.8 31.9 1 45.8 1 63s5.8 31 18.4 43.6c9.2 9.2 18.6 14.4 30.3 16.9 31.8 6.8 63.4-12.3 72.9-44 2.5-8.2 2.5-24.8 0-33C116.7 26.6 101.2 10.4 82 4 72.4.8 56.8.3 47.2 3zm27.9 3.4c14.5 3.1 29.6 13.9 37.2 26.7 11 18.6 11 41.2 0 59.8-10.6 17.8-32.6 29.3-53.5 27.7-40.6-2.9-65.3-45.2-48.3-82.4 5-10.9 15.6-21.7 27.3-27.6 9.9-5 25.2-6.7 37.3-4.2z"/><path d="M60.2 12.6c-1.2.8-2.2 2.1-2.2 2.8 0 .8-1.2 1.7-2.7 2.1C48.9 19.1 38 29.8 38 34.4c0 1 1.6 3.4 3.7 5.3l3.6 3.5-1.7 2.9c-1.2 2-1.5 3.9-1.1 5.9.5 2.1.1 3.8-1.3 5.7-1.1 1.6-2.2 4.8-2.6 7.3-.4 2.5-1.3 5.8-2.1 7.4-2 3.9-2 9.6.1 9.6 2.9 0 5.2-1.9 6.7-5.7 1-2.7 2.7-4.5 5.5-5.9l4-2.2-1 3.7c-.9 3.7-2.8 8.2-3.9 9.1-.3.3-1.5 2.5-2.6 5-1.2 2.5-3 5.4-4 6.5-2.9 3-3.6 5.4-4.6 14-.1 1.4.9 2.5 3.4 3.8 5.5 2.6 6.6 1.7 6.5-5.6l-.1-6.2 7-7c3.9-3.9 7.9-8.4 9.1-10l2.1-3 5.2 5c2.8 2.7 5.4 6 5.7 7.2.3 1.2 2.6 3.8 5 5.8 4 3.3 4.5 3.5 6 2 1.2-1.2 1.9-1.3 3-.4 1.5 1.2 1.7.7 1.4-2.8-.1-1.7.3-2.1 1.4-1.7 2.1.8 2.1-1.9.1-3.6-1.1-.9-1.4-2.2-1-4.1.5-2.1.2-2.9-1.2-3.4C88.2 81.8 78 69.8 78 68.1c0-.6-.7-1.4-1.6-1.8-1.1-.4-.4-1.1 2.4-2.3 2.2-1 4.2-2.6 4.5-3.7.3-1 .6-7.2.6-13.8l.1-12-4-4.9c-3.1-3.7-4-5.7-4-8.6 0-7.4-9.8-12.6-15.8-8.4z"/></svg>