<?xml version="1.0" standalone="no"?>
<!DOCTYPE svg PUBLIC "-//W3C//DTD SVG 20010904//EN"
 "http://www.w3.org/TR/2001/REC-SVG-20010904/DTD/svg10.dtd">
<svg version="1.0" xmlns="http://www.w3.org/2000/svg"
 width="126.000000pt" height="127.000000pt" viewBox="0 0 126.000000 127.000000"
 preserveAspectRatio="xMidYMid meet">

<g transform="translate(0.000000,127.000000) scale(0.100000,-0.100000)"
fill="#000000" stroke="none">
<path d="M544 1250 c-227 -35 -412 -183 -497 -398 -25 -65 -31 -95 -35 -187
-8 -193 46 -333 177 -465 176 -177 415 -232 649 -150 287 101 461 412 398 711
-48 226 -228 415 -447 473 -73 18 -183 26 -245 16z m221 -55 c99 -25 182 -72
260 -146 121 -116 179 -250 178 -419 -1 -212 -117 -407 -302 -504 -90 -47
-167 -66 -271 -66 -164 0 -292 52 -405 165 -185 183 -225 442 -108 677 68 136
220 256 369 292 79 19 206 19 279 1z"/>
<path d="M598 1139 c-10 -5 -18 -19 -18 -29 0 -13 -7 -20 -18 -20 -27 0 -123
-67 -154 -108 -37 -47 -35 -71 8 -115 l36 -36 -19 -32 c-17 -26 -19 -36 -9
-61 8 -21 8 -31 0 -36 -17 -11 -31 -43 -39 -92 -4 -25 -15 -61 -25 -80 -21
-42 -16 -90 9 -90 25 0 47 20 66 63 10 20 21 37 25 37 4 0 22 13 39 29 17 16
31 24 31 18 -1 -40 -60 -163 -127 -261 -18 -26 -33 -60 -33 -75 0 -14 -3 -36
-6 -48 -5 -18 1 -25 36 -43 54 -28 65 -18 65 59 0 57 1 59 55 112 30 30 72 74
92 99 l36 45 52 -50 c28 -27 53 -59 56 -71 5 -18 84 -94 98 -94 3 0 6 7 6 16
0 12 7 14 29 9 26 -6 28 -4 24 19 -4 19 -1 26 11 26 20 0 20 9 1 34 -8 11 -13
27 -10 37 4 11 -16 39 -60 85 -36 38 -65 74 -65 80 0 7 -7 20 -16 28 -14 15
-13 17 9 25 53 20 57 33 57 170 0 126 -1 129 -29 169 -16 22 -34 43 -40 47 -6
3 -11 24 -11 45 0 55 -48 100 -105 100 -22 0 -48 -5 -57 -11z m-87 -242 c-17
-17 -34 12 -19 31 10 11 13 10 21 -3 6 -11 5 -21 -2 -28z m219 -162 c0 -14 -4
-25 -10 -25 -11 0 -14 33 -3 43 11 11 13 8 13 -18z m170 -390 c0 -8 -4 -15
-10 -15 -5 0 -7 7 -4 15 4 8 8 15 10 15 2 0 4 -7 4 -15z m-25 -35 c3 -5 -3
-10 -14 -10 -12 0 -21 5 -21 10 0 6 6 10 14 10 8 0 18 -4 21 -10z"/>
</g>
</svg>
