<?xml version="1.0" standalone="no"?>
<!DOCTYPE svg PUBLIC "-//W3C//DTD SVG 20010904//EN"
 "http://www.w3.org/TR/2001/REC-SVG-20010904/DTD/svg10.dtd">
<svg version="1.0" xmlns="http://www.w3.org/2000/svg"
 width="126.000000pt" height="126.000000pt" viewBox="0 0 126.000000 126.000000"
 preserveAspectRatio="xMidYMid meet">
<metadata>
Created by potrace 1.15, written by Peter Selinger 2001-2017
</metadata>
<g transform="translate(0.000000,126.000000) scale(0.100000,-0.100000)"
fill="#000000" stroke="none">
<path d="M472 1230 c-112 -30 -187 -75 -278 -165 -126 -124 -184 -263 -184
-435 0 -172 58 -310 184 -436 92 -92 186 -144 303 -169 318 -68 634 123 729
440 25 82 25 248 0 330 -59 199 -214 361 -406 425 -96 32 -252 37 -348 10z
m279 -34 c145 -31 296 -139 372 -267 110 -186 110 -412 0 -598 -106 -178 -326
-293 -535 -277 -406 29 -653 452 -483 824 50 109 156 217 273 276 99 50 252
67 373 42z"/>
<path d="M602 1134 c-12 -8 -22 -21 -22 -28 0 -8 -12 -17 -27 -21 -64 -16
-173 -123 -173 -169 0 -10 16 -34 37 -53 l36 -35 -17 -29 c-12 -20 -15 -39
-11 -59 5 -21 1 -38 -13 -57 -11 -16 -22 -48 -26 -73 -4 -25 -13 -58 -21 -74
-20 -39 -20 -96 1 -96 29 0 52 19 67 57 10 27 27 45 55 59 l40 22 -10 -37 c-9
-37 -28 -82 -39 -91 -3 -3 -15 -25 -26 -50 -12 -25 -30 -54 -40 -65 -29 -30
-36 -54 -46 -140 -1 -14 9 -25 34 -38 55 -26 66 -17 65 56 l-1 62 70 70 c39
39 79 84 91 100 l21 30 52 -50 c28 -27 54 -60 57 -72 3 -12 26 -38 50 -58 40
-33 45 -35 60 -20 12 12 19 13 30 4 15 -12 17 -7 14 28 -1 17 3 21 14 17 21
-8 21 19 1 36 -11 9 -14 22 -10 41 5 21 2 29 -12 34 -21 7 -123 127 -123 144
0 6 -7 14 -16 18 -11 4 -4 11 24 23 22 10 42 26 45 37 3 10 6 72 6 138 l1 120
-40 49 c-31 37 -40 57 -40 86 0 74 -98 126 -158 84z"/>
</g>
</svg>
