<?xml version="1.0" standalone="no"?>
<!DOCTYPE svg PUBLIC "-//W3C//DTD SVG 20010904//EN"
 "http://www.w3.org/TR/2001/REC-SVG-20010904/DTD/svg10.dtd">
<svg version="1.0" xmlns="http://www.w3.org/2000/svg"
 width="128.000000pt" height="128.000000pt" viewBox="0 0 128.000000 128.000000"
 preserveAspectRatio="xMidYMid meet">
<metadata>
Created by potrace 1.15, written by Peter Selinger 2001-2017
</metadata>
<g transform="translate(0.000000,128.000000) scale(0.100000,-0.100000)"
fill="#000000" stroke="none">
<path d="M520 1255 c-235 -43 -446 -247 -495 -481 -71 -335 136 -667 466 -748
236 -58 499 35 645 227 122 161 163 372 108 558 -66 224 -265 404 -489 444
-97 17 -138 17 -235 0z m255 -46 c155 -34 316 -162 389 -309 200 -407 -113
-877 -563 -847 -151 10 -273 66 -382 177 -105 106 -168 259 -169 408 0 135 64
295 159 395 153 163 347 223 566 176z"/>
<path d="M694 1126 c-7 -7 -8 -19 -3 -28 4 -8 12 -33 18 -56 9 -42 9 -42 -20
-42 -28 0 -29 1 -17 23 24 43 0 90 -53 101 -69 14 -104 -43 -70 -115 17 -36
17 -37 -6 -63 -13 -16 -23 -40 -23 -58 0 -29 -1 -30 -18 -15 -10 10 -33 19
-50 21 -18 2 -37 8 -44 13 -20 16 -78 33 -78 23 0 -4 17 -18 38 -31 46 -28 62
-47 62 -75 0 -18 12 -28 55 -48 72 -33 79 -52 47 -131 -13 -33 -34 -78 -45
-100 -17 -32 -22 -65 -27 -171 -6 -139 -12 -158 -57 -175 -37 -14 -27 -29 20
-29 78 0 87 6 87 60 0 26 5 72 11 101 6 30 13 67 16 84 5 27 65 129 83 140 5
3 20 -32 35 -77 15 -46 40 -100 57 -121 43 -55 68 -116 68 -170 0 -52 14 -66
49 -47 26 14 26 40 1 113 -11 31 -20 61 -20 68 0 6 -13 41 -30 79 -16 38 -30
71 -30 74 0 3 9 6 21 6 20 0 21 3 14 72 -4 39 -11 85 -16 102 -14 49 -11 60
24 76 29 14 32 18 30 58 -1 24 -7 50 -14 58 -7 9 -14 32 -16 52 -8 88 -13 102
-43 102 -14 0 -23 14 -34 54 -9 30 -13 61 -10 70 7 19 3 20 -12 2z"/>
</g>
</svg>
