<?xml version="1.0" standalone="no"?>
<!DOCTYPE svg PUBLIC "-//W3C//DTD SVG 20010904//EN"
 "http://www.w3.org/TR/2001/REC-SVG-20010904/DTD/svg10.dtd">
<svg version="1.0" xmlns="http://www.w3.org/2000/svg"
 width="128.000000pt" height="128.000000pt" viewBox="0 0 128.000000 128.000000"
 preserveAspectRatio="xMidYMid meet">

<g transform="translate(0.000000,128.000000) scale(0.100000,-0.100000)"
fill="#000000" stroke="none">
<path d="M530 1264 c-190 -37 -367 -169 -449 -336 -53 -107 -71 -182 -71 -288
0 -275 180 -519 445 -603 57 -18 93 -22 190 -22 104 1 130 5 193 27 100 36
173 82 246 154 72 73 118 145 154 246 23 64 26 88 26 198 0 110 -3 134 -26
198 -70 195 -220 343 -408 403 -64 21 -240 34 -300 23z m282 -64 c145 -45 284
-164 353 -302 174 -352 -44 -769 -436 -835 -79 -14 -99 -14 -178 0 -279 47
-472 256 -497 540 -13 153 56 336 170 450 87 87 215 151 341 171 55 8 183 -4
247 -24z"/>
<path d="M665 1149 c-4 -6 -5 -12 -2 -15 2 -3 7 2 10 11 7 17 1 20 -8 4z"/>
<path d="M697 1140 c3 -11 1 -20 -5 -20 -6 0 -4 -15 4 -37 16 -47 19 -86 4
-63 -8 13 -10 12 -10 -2 0 -10 -7 -18 -15 -18 -8 0 -15 4 -15 9 0 5 7 14 15
21 36 30 0 86 -60 95 -71 11 -103 -42 -69 -117 17 -37 17 -39 -4 -61 -12 -13
-22 -35 -22 -50 0 -32 -3 -32 -36 -11 -13 9 -27 14 -31 11 -3 -3 -26 5 -52 18
-79 43 -95 27 -21 -20 29 -18 41 -33 45 -59 6 -29 14 -37 48 -51 54 -22 77
-43 77 -71 0 -12 -21 -69 -47 -126 -46 -101 -47 -105 -46 -198 2 -122 -9 -165
-47 -185 -57 -30 -27 -43 63 -29 36 7 37 7 37 53 1 89 35 225 69 274 17 25 35
48 40 52 5 3 21 -32 36 -77 15 -46 40 -100 57 -121 43 -55 68 -116 68 -168 0
-51 11 -62 48 -48 14 5 22 17 22 32 0 33 -46 183 -75 241 -24 49 -24 79 0 70
18 -7 25 18 15 62 -16 76 -31 166 -28 168 60 27 63 32 61 80 -1 26 -7 54 -14
63 -8 8 -15 32 -16 52 -6 75 -8 84 -23 89 -13 5 -13 3 -1 -11 9 -12 10 -17 2
-17 -6 0 -15 8 -18 18 -4 9 -13 23 -20 30 -7 7 -13 24 -13 37 0 13 -5 27 -11
30 -6 4 -7 19 -4 35 3 15 2 31 -3 34 -6 3 -8 -3 -5 -14z m-173 -323 c-9 -24
-23 -11 -17 14 3 12 9 17 15 11 5 -5 6 -16 2 -25z m236 -270 c0 -24 -3 -28
-10 -17 -13 20 -13 63 0 55 6 -3 10 -21 10 -38z"/>
</g>
</svg>
