<svg version="1" xmlns="http://www.w3.org/2000/svg" width="170.667" height="170.667" viewBox="0 0 128 128"><path d="M52 2.5C28.5 6.8 7.4 27.2 2.5 50.6c-7.1 33.5 13.6 66.7 46.6 74.8 23.6 5.8 49.9-3.5 64.5-22.7 12.2-16.1 16.3-37.2 10.8-55.8-6.6-22.4-26.5-40.4-48.9-44.4C65.8.8 61.7.8 52 2.5zm25.5 4.6C93 10.5 109.1 23.3 116.4 38c20 40.7-11.3 87.7-56.3 84.7-15.1-1-27.3-6.6-38.2-17.7C11.4 94.4 5.1 79.1 5 64.2c0-13.5 6.4-29.5 15.9-39.5C36.2 8.4 55.6 2.4 77.5 7.1z"/><path d="M69.4 15.4c-.7.7-.8 1.9-.3 2.8.4.8 1.2 3.3 1.8 5.6.9 4.2.9 4.2-2 4.2-2.8 0-2.9-.1-1.7-2.3 2.4-4.3 0-9-5.3-10.1-6.9-1.4-10.4 4.3-7 11.5 1.7 3.6 1.7 3.7-.6 6.3-1.3 1.6-2.3 4-2.3 5.8 0 2.9-.1 3-1.8 1.5-1-1-3.3-1.9-5-2.1-1.8-.2-3.7-.8-4.4-1.3-2-1.6-7.8-3.3-7.8-2.3 0 .4 1.7 1.8 3.8 3.1 4.6 2.8 6.2 4.7 6.2 7.5 0 1.8 1.2 2.8 5.5 4.8 7.2 3.3 7.9 5.2 4.7 13.1-1.3 3.3-3.4 7.8-4.5 10C47 76.7 46.5 80 46 90.6c-.6 13.9-1.2 15.8-5.7 17.5-3.7 1.4-2.7 2.9 2 2.9 7.8 0 8.7-.6 8.7-6 0-2.6.5-7.2 1.1-10.1.6-3 1.3-6.7 1.6-8.4.5-2.7 6.5-12.9 8.3-14 .5-.3 2 3.2 3.5 7.7 1.5 4.6 4 10 5.7 12.1 4.3 5.5 6.8 11.6 6.8 17 0 5.2 1.4 6.6 4.9 4.7 2.6-1.4 2.6-4 .1-11.3-1.1-3.1-2-6.1-2-6.8 0-.6-1.3-4.1-3-7.9-1.6-3.8-3-7.1-3-7.4 0-.3.9-.6 2.1-.6 2 0 2.1-.3 1.4-7.2-.4-3.9-1.1-8.5-1.6-10.2-1.4-4.9-1.1-6 2.4-7.6 2.9-1.4 3.2-1.8 3-5.8-.1-2.4-.7-5-1.4-5.8-.7-.9-1.4-3.2-1.6-5.2C78.5 29.4 78 28 75 28c-1.4 0-2.3-1.4-3.4-5.4-.9-3-1.3-6.1-1-7 .7-1.9.3-2-1.2-.2z"/></svg>