<?xml version="1.0" standalone="no"?>
<!DOCTYPE svg PUBLIC "-//W3C//DTD SVG 20010904//EN"
 "http://www.w3.org/TR/2001/REC-SVG-20010904/DTD/svg10.dtd">
<svg version="1.0" xmlns="http://www.w3.org/2000/svg"
 width="128.000000pt" height="129.000000pt" viewBox="0 0 128.000000 129.000000"
 preserveAspectRatio="xMidYMid meet">
<metadata>
Created by potrace 1.15, written by Peter Selinger 2001-2017
</metadata>
<g transform="translate(0.000000,129.000000) scale(0.100000,-0.100000)"
fill="#000000" stroke="none">
<path d="M480 1254 c-219 -57 -403 -245 -454 -464 -48 -204 10 -423 154 -573
76 -80 148 -128 247 -164 348 -126 735 84 824 447 23 92 16 241 -15 337 -66
202 -237 364 -443 417 -76 20 -238 20 -313 0z m299 -39 c136 -32 265 -124 345
-243 101 -153 128 -341 72 -507 -51 -150 -151 -269 -287 -340 -88 -46 -166
-65 -269 -65 -171 0 -294 52 -415 174 -129 131 -183 271 -171 446 10 156 61
265 176 380 79 80 158 126 261 154 71 19 208 20 288 1z"/>
<path d="M403 1080 c-132 -108 -142 -124 -104 -171 18 -22 20 -22 72 -10 72
17 131 2 182 -47 42 -41 44 -49 20 -69 -17 -13 -16 -14 5 -8 31 9 60 -2 74
-28 6 -12 14 -87 17 -167 l6 -145 103 -3 102 -3 0 103 c0 188 -47 304 -209
516 -77 100 -107 132 -124 132 -13 0 -72 -41 -144 -100z"/>
<path d="M460 576 c0 -2 7 -22 15 -46 8 -23 18 -90 21 -150 6 -101 8 -109 31
-119 13 -6 34 -11 46 -11 13 0 28 -5 34 -11 16 -16 36 -1 30 22 -5 18 2 19
122 19 134 0 151 5 151 46 0 20 6 23 43 26 34 2 42 7 42 23 0 19 -8 20 -185
23 -101 1 -191 -1 -200 -4 -8 -4 -27 -8 -42 -9 -25 -2 -28 1 -33 44 -11 87
-34 151 -56 151 -10 0 -19 -2 -19 -4z"/>
</g>
</svg>
