<?xml version="1.0" standalone="no"?>
<!DOCTYPE svg PUBLIC "-//W3C//DTD SVG 20010904//EN"
 "http://www.w3.org/TR/2001/REC-SVG-20010904/DTD/svg10.dtd">
<svg version="1.0" xmlns="http://www.w3.org/2000/svg"
 width="128.000000pt" height="128.000000pt" viewBox="0 0 128.000000 128.000000"
 preserveAspectRatio="xMidYMid meet">

<g transform="translate(0.000000,128.000000) scale(0.100000,-0.100000)"
fill="#000000" stroke="none">
<path d="M480 1251 c-201 -54 -369 -210 -438 -404 -33 -95 -41 -251 -18 -351
41 -173 171 -338 328 -415 257 -127 547 -77 739 127 75 79 110 137 147 242 21
62 26 93 26 185 1 130 -22 221 -84 326 -48 81 -165 193 -247 237 -131 69 -314
91 -453 53z m332 -51 c242 -74 408 -300 408 -553 0 -172 -51 -297 -170 -418
-117 -119 -251 -174 -420 -173 -249 2 -466 162 -551 404 -33 96 -33 257 1 360
62 190 236 352 420 389 30 6 64 13 75 15 39 9 175 -5 237 -24z"/>
<path d="M620 1182 c0 -5 17 -31 38 -58 l37 -49 3 44 c2 24 0 47 -5 51 -13 13
-73 22 -73 12z"/>
<path d="M403 1078 c-101 -82 -123 -105 -123 -127 0 -51 11 -56 118 -56 92 0
101 -2 135 -28 51 -39 64 -65 40 -83 -16 -12 -15 -13 19 -14 60 0 69 -24 76
-195 l5 -145 103 0 104 0 0 103 c0 187 -42 291 -206 509 -81 106 -110 138
-127 137 -13 0 -74 -43 -144 -101z m361 -238 c34 -13 35 -47 1 -60 -27 -10
-68 0 -81 21 -4 7 2 20 16 31 26 21 30 21 64 8z"/>
<path d="M717 1078 c-15 -12 -14 -17 16 -52 20 -24 38 -36 45 -32 16 10 15 27
0 24 -7 -2 -12 3 -11 9 2 7 -6 18 -16 25 -10 6 -17 18 -14 25 6 16 1 16 -20 1z"/>
<path d="M482 850 c0 -17 -4 -39 -7 -50 -5 -16 -2 -20 19 -20 28 0 76 19 76
31 0 7 -74 69 -82 69 -3 0 -5 -14 -6 -30z"/>
<path d="M466 571 c-3 -5 1 -28 9 -50 8 -23 17 -89 21 -147 7 -100 8 -106 33
-118 63 -32 141 -27 112 8 -12 14 2 16 126 18 l138 3 3 33 c3 31 5 32 48 32
37 0 44 3 44 20 0 18 -9 19 -192 22 -106 2 -197 0 -202 -4 -6 -5 -22 -8 -37
-8 -26 0 -28 4 -34 48 -13 109 -47 179 -69 143z"/>
<path d="M662 228 c3 -22 2 -22 165 -63 18 -4 25 2 38 29 9 19 14 40 10 45 -4
7 -49 11 -111 11 -103 0 -105 -1 -102 -22z"/>
<path d="M645 169 c-4 -11 -5 -22 -3 -23 8 -7 188 -49 192 -45 2 2 6 13 8 23
3 17 -10 23 -87 42 -110 29 -102 28 -110 3z"/>
</g>
</svg>
