<svg version="1" xmlns="http://www.w3.org/2000/svg" width="170.667" height="172" viewBox="0 0 128 129"><path d="M48 3.6C26.1 9.3 7.7 28.1 2.6 50c-4.8 20.4 1 42.3 15.4 57.3 7.6 8 14.8 12.8 24.7 16.4 34.8 12.6 73.5-8.4 82.4-44.7 2.3-9.2 1.6-24.1-1.5-33.7C117 25.1 99.9 8.9 79.3 3.6c-7.6-2-23.8-2-31.3 0zm29.9 3.9c13.6 3.2 26.5 12.4 34.5 24.3 10.1 15.3 12.8 34.1 7.2 50.7-5.1 15-15.1 26.9-28.7 34-8.8 4.6-16.6 6.5-26.9 6.5-17.1 0-29.4-5.2-41.5-17.4C9.6 92.5 4.2 78.5 5.4 61c1-15.6 6.1-26.5 17.6-38 7.9-8 15.8-12.6 26.1-15.4 7.1-1.9 20.8-2 28.8-.1z"/><path d="M40.3 21C27.1 31.8 26.1 33.4 29.9 38.1c1.8 2.2 2 2.2 7.2 1 7.2-1.7 13.1-.2 18.2 4.7 4.2 4.1 4.4 4.9 2 6.9-1.7 1.3-1.6 1.4.5.8 3.1-.9 6 .2 7.4 2.8.6 1.2 1.4 8.7 1.7 16.7l.6 14.5 10.3.3 10.2.3V75.8c0-18.8-4.7-30.4-20.9-51.6C59.4 14.2 56.4 11 54.7 11c-1.3 0-7.2 4.1-14.4 10z"/><path d="M46 71.4c0 .2.7 2.2 1.5 4.6.8 2.3 1.8 9 2.1 15 .6 10.1.8 10.9 3.1 11.9 1.3.6 3.4 1.1 4.6 1.1 1.3 0 2.8.5 3.4 1.1 1.6 1.6 3.6.1 3-2.2-.5-1.8.2-1.9 12.2-1.9 13.4 0 15.1-.5 15.1-4.6 0-2 .6-2.3 4.3-2.6 3.4-.2 4.2-.7 4.2-2.3 0-1.9-.8-2-18.5-2.3-10.1-.1-19.1.1-20 .4-.8.4-2.7.8-4.2.9-2.5.2-2.8-.1-3.3-4.4-1.1-8.7-3.4-15.1-5.6-15.1-1 0-1.9.2-1.9.4z"/></svg>