<svg version="1" xmlns="http://www.w3.org/2000/svg" width="170.667" height="170.667" viewBox="0 0 128 128"><path d="M48.2 3C25.6 8.9 7.9 27 2.5 49.7.3 59 .9 73.6 3.9 83c9.6 29.9 40.9 48.6 71.6 42.6 32.2-6.3 54.8-36.9 50.6-68.9-2.1-16-7.8-27.4-19.5-38.4C90.8 3.3 69-2.4 48.2 3zm28.1 3.5c23.2 4.9 41.2 23.9 45.3 48 3.4 19.3-3.1 38.1-17.8 52-26.2 24.8-68.5 20.1-88.5-9.8C8.1 86 5.5 77.1 5.5 63.5c0-17.1 5-29 17-41C37 8 56.3 2.2 76.3 6.5z"/><path d="M79.5 34c-8.3 8.3-15.4 15-16 15-.6 0-7.5-6.5-15.5-14.5S33.1 20 32.5 20c-.6 0-3.4 2.4-6.3 5.3L21 30.5 42.5 52 64 73.5l21-21c11.5-11.5 21-21.5 21-22 0-1-6.5-7.6-10.1-10.3-1.2-.9-4 1.4-16.4 13.8z"/><path d="M14.6 41c-.9 2.2-1.6 4.6-1.6 5.3 0 .7 5.2 6.4 11.5 12.7C35.8 70.3 36 70.6 36 75c0 4.5.1 4.7 13.8 18.3L63.5 107l14.3-14.3C91.8 78.6 92 78.4 92 74c0-4.4.3-4.7 11.6-16.1l11.6-11.6-2.1-4.9-2.2-4.8L87.5 60 64 83.5 40.7 60.2C28 47.5 17.2 37 16.9 37c-.4 0-1.4 1.8-2.3 4z"/></svg>