<?xml version="1.0" standalone="no"?>
<!DOCTYPE svg PUBLIC "-//W3C//DTD SVG 20010904//EN"
 "http://www.w3.org/TR/2001/REC-SVG-20010904/DTD/svg10.dtd">
<svg version="1.0" xmlns="http://www.w3.org/2000/svg"
 width="128.000000pt" height="128.000000pt" viewBox="0 0 128.000000 128.000000"
 preserveAspectRatio="xMidYMid meet">
<metadata>
Created by potrace 1.15, written by Peter Selinger 2001-2017
</metadata>
<g transform="translate(0.000000,128.000000) scale(0.100000,-0.100000)"
fill="#000000" stroke="none">
<path d="M482 1250 c-226 -59 -403 -240 -457 -467 -22 -93 -16 -239 14 -333
96 -299 409 -486 716 -426 322 63 548 369 506 689 -21 160 -78 274 -195 384
-158 150 -376 207 -584 153z m281 -35 c232 -49 412 -239 453 -480 34 -193 -31
-381 -178 -520 -262 -248 -685 -201 -885 98 -72 107 -98 196 -98 332 0 171 50
290 170 410 145 145 338 203 538 160z"/>
<path d="M795 940 c-83 -83 -154 -150 -160 -150 -6 0 -75 65 -155 145 -80 80
-149 145 -155 145 -6 0 -34 -24 -63 -53 l-52 -52 215 -215 215 -215 210 210
c115 115 210 215 210 220 0 10 -65 76 -101 103 -12 9 -40 -14 -164 -138z"/>
<path d="M146 870 c-9 -22 -16 -46 -16 -53 0 -7 52 -64 115 -127 113 -113 115
-116 115 -160 0 -45 1 -47 138 -183 l137 -137 143 143 c140 141 142 143 142
187 0 44 3 47 116 161 l116 116 -21 49 -22 48 -234 -234 -235 -235 -233 233
c-127 127 -235 232 -238 232 -4 0 -14 -18 -23 -40z"/>
</g>
</svg>
